PathFileType	4	(X/Y/Z)	/Users/niels/Desktop/University/Third Semester/Perception and Action/Exam/Gymnastics Motion Tracking/Code for Gym Tracking/Scripts/Analyzed Data/Start Salto/st_salto_good_id13_1_Sports2D/st_salto_good_id13_1_Sports2D_px_person00.trc
DataRate	CameraRate	NumFrames	NumMarkers	Units	OrigDataRate	OrigDataStartFrame	OrigNumFrames
29.82456140350877	29.82456140350877	11	22	m	29.82456140350877	128	171
Frame#	Time	Hip			RHip			RKnee			RAnkle			RBigToe			RSmallToe			RHeel			LHip			LKnee			LAnkle			LBigToe			LSmallToe			LHeel			Neck			Head			Nose			RShoulder			RElbow			RWrist			LShoulder			LElbow			LWrist		
		X1	Y1	Z1	X2	Y2	Z2	X3	Y3	Z3	X4	Y4	Z4	X5	Y5	Z5	X6	Y6	Z6	X7	Y7	Z7	X8	Y8	Z8	X9	Y9	Z9	X10	Y10	Z10	X11	Y11	Z11	X12	Y12	Z12	X13	Y13	Z13	X14	Y14	Z14	X15	Y15	Z15	X16	Y16	Z16	X17	Y17	Z17	X18	Y18	Z18	X19	Y19	Z19	X20	Y20	Z20	X21	Y21	Z21	X22	Y22	Z22
128	4.291764705882353	1.87249445020955	-0.5272052074726434	0.0	1.8913519055907912	-0.5403088431466219	0.0	1.911428076743325	-0.661032767299064	0.0	1.8259160085348045	-0.7517378260348639	0.0	1.837734143735381	-0.7943108046245485	0.0	1.8317762839540237	-0.7895750295297237	0.0	1.8066135137446482	-0.7544039280320783	0.0	1.8460252959081798	-0.5397330671123142	0.0	1.906629086334102	-0.6595525972506732	0.0	1.9093855211072543	-0.7732913195001473	0.0	1.9181145468620935	-0.7941652330536815	0.0	1.9155749168462721	-0.7868133868794494	0.0	1.8981477337843125	-0.790509706512473	0.0	1.8854168220858627	-0.3420368484949242	0.0	1.914034804411024	-0.2754921965706402	0.0	1.9203477469902444	-0.31696211291330084	0.0	1.898144603448642	-0.36546730228875907	0.0	1.8929460263903908	-0.40068982299501227	0.0	1.8712902507957265	-0.4145969421336165	0.0	1.8301051872011762	-0.3634181563533413	0.0	1.7785323915473101	-0.4196192913567547	0.0	1.809615889195485	-0.4354869759175608	0.0
129	4.325294117647059	1.8819516345928147	-0.5241774315898272	0.0	1.9002011712536075	-0.5390252789749894	0.0	1.9141692284912213	-0.6559852608816986	0.0	1.841194292690757	-0.7404199068648752	0.0	1.8456558693132399	-0.7862328089870685	0.0	1.8413585789761628	-0.7814609177355384	0.0	1.8243008238072755	-0.7414337728607899	0.0	1.8566099385374766	-0.5376652749997868	0.0	1.9057709569777281	-0.6527559022920937	0.0	1.906142065311466	-0.7623923232230261	0.0	1.9092618927810996	-0.7893856282128052	0.0	1.9075028901717779	-0.7815312187000851	0.0	1.8946055966543514	-0.7841601932368855	0.0	1.89841354492009	-0.3408496405241697	0.0	1.9202898707247786	-0.27453762106741	0.0	1.9236934768591534	-0.3099041531184576	0.0	1.9061360428885445	-0.3645117523233198	0.0	1.8782760764827982	-0.41700300294553505	0.0	1.8590049762550875	-0.436934911406922	0.0	1.8460604480141944	-0.36135434552379725	0.0	1.7958486435351537	-0.42069320149222283	0.0	1.8293270286380734	-0.44233125027975495	0.0
130	4.358823529411765	1.890248948019955	-0.5203554283073242	0.0	1.9056512889626072	-0.5359491258040081	0.0	1.9154403371425601	-0.6502874970786012	0.0	1.8585968244774398	-0.7302599562683776	0.0	1.8560217950533369	-0.778161687538357	0.0	1.8529937550010382	-0.7737306969005406	0.0	1.8448055585007765	-0.7303657194976207	0.0	1.8673746927127777	-0.534011420915403	0.0	1.905187553686548	-0.6450550217442393	0.0	1.9020179828374062	-0.7502946324352623	0.0	1.9016919823641514	-0.7836227511233258	0.0	1.899214287964342	-0.7763539214912673	0.0	1.8910334329735459	-0.7773026780562415	0.0	1.9090007799339372	-0.33971889956171347	0.0	1.9242635494001006	-0.2732481662142577	0.0	1.9246743509318358	-0.3029373399196525	0.0	1.9103229058514464	-0.3623726516842957	0.0	1.8639767737472928	-0.426452924398327	0.0	1.8531068702921922	-0.44863597242496916	0.0	1.8618669911811967	-0.3585575330716514	0.0	1.8129109454411143	-0.4209911028501423	0.0	1.8473908436581412	-0.4464060405777542	0.0
131	4.392352941176471	1.8975321580526503	-0.5163725957943623	0.0	1.9084073673701076	-0.5316198539005398	0.0	1.915538287905443	-0.6443958687375316	0.0	1.8763222898102951	-0.7225807834169908	0.0	1.8678889409563812	-0.7711478020939674	0.0	1.8654788430035723	-0.7672743299810499	0.0	1.8659819982398453	-0.7230897901797213	0.0	1.8780482228848705	-0.5295171443685149	0.0	1.9054291328431598	-0.6379551051367074	0.0	1.8984286775797565	-0.7386898894278398	0.0	1.8968805456338966	-0.7777028046768746	0.0	1.8928214093542288	-0.7718857284969356	0.0	1.8890990941392924	-0.7702693050256353	0.0	1.9171578540396959	-0.3388095346856238	0.0	1.9262646411595157	-0.2719558373122454	0.0	1.9242690500805169	-0.29894253632752954	0.0	1.9115687694429067	-0.3595532279298608	0.0	1.8548028476630423	-0.4295293473070462	0.0	1.8551159230176748	-0.45239687782744276	0.0	1.8768606441428446	-0.35562623910237406	0.0	1.8294174791448616	-0.42061636158335247	0.0	1.864232117346907	-0.44811825404741185	0.0
132	4.425882352941176	1.9036851813156292	-0.5128564056087516	0.0	1.9093379974338065	-0.5267665824636686	0.0	1.9145622515170255	-0.6389502943235629	0.0	1.8918814923955842	-0.7185674718347131	0.0	1.8796662348941382	-0.7659765601606509	0.0	1.8771710940092037	-0.7628194105588784	0.0	1.8850517549162435	-0.7210676617761714	0.0	1.887941238436283	-0.5249708969231746	0.0	1.9062603514873442	-0.6325273990227533	0.0	1.8971283860397006	-0.7296431784705167	0.0	1.895222284858335	-0.7723082759893989	0.0	1.8900469067645098	-0.7684571976937563	0.0	1.8903346369333534	-0.7633161022062429	0.0	1.9229300770596134	-0.33834236372981585	0.0	1.926663130335719	-0.27094531889946816	0.0	1.9229663199380678	-0.3002066421544742	0.0	1.9111910048205614	-0.3566954813957058	0.0	1.852654704252457	-0.42817282657289196	0.0	1.8634851777800794	-0.4517334969949567	0.0	1.8899159465361615	-0.3531164136914791	0.0	1.844617552892929	-0.4196426387299653	0.0	1.879316096487718	-0.44832474486215657	0.0
133	4.459411764705883	1.90848272391124	-0.5101929275162801	0.0	1.9092317368452085	-0.5221231560600313	0.0	1.9127915659150063	-0.6345491054623018	0.0	1.9033545740359639	-0.7183822219806782	0.0	1.889767512329187	-0.7628599108318083	0.0	1.8866555030887038	-0.7605630660191577	0.0	1.8998136507814707	-0.7241459792252877	0.0	1.8962476994169783	-0.5210013200257502	0.0	1.9070877689497947	-0.6291463349269062	0.0	1.8988935644207012	-0.724426975120646	0.0	1.8960088686217458	-0.7679203645947011	0.0	1.8911865175008584	-0.7661541694770734	0.0	1.8948925615122882	-0.7568855442378993	0.0	1.9265615202091382	-0.3384275403373929	0.0	1.9260255421717956	-0.2703647108917225	0.0	1.9211182067856	-0.30684334529912344	0.0	1.91037259592819	-0.3543025673631329	0.0	1.8560172842214797	-0.4245931624474762	0.0	1.8748003564825644	-0.44956495363149035	0.0	1.9000387085689263	-0.3513575501321597	0.0	1.8574688942481097	-0.41827177007695016	0.0	1.8915589140824405	-0.4478957073287814	0.0
134	4.492941176470588	1.911801329640152	-0.5084733109806684	0.0	1.9086920957991365	-0.5183204066149373	0.0	1.9107650159639078	-0.6314927940417575	0.0	1.9103042939993413	-0.720798718744401	0.0	1.8971948775970924	-0.7614564711877755	0.0	1.8932455465195674	-0.7600452290950236	0.0	1.9094953866178341	-0.7302157091041783	0.0	1.9023806936537297	-0.5180067718492757	0.0	1.9075656012550244	-0.6275451807746476	0.0	1.9027848048538019	-0.7227167120134274	0.0	1.8980141874502945	-0.7647874141399997	0.0	1.8948613175616607	-0.7648488068694825	0.0	1.9012078392525902	-0.7516018693899621	0.0	1.928493812814325	-0.3389156847746837	0.0	1.9249713884663375	-0.2701747512062035	0.0	1.9191851838226783	-0.3163632090770301	0.0	1.9097393930454856	-0.3526147244111141	0.0	1.8618410914315406	-0.42062145453380323	0.0	1.8856210540491938	-0.44753519634397665	0.0	1.906848409769995	-0.35037375439889057	0.0	1.8670810502646278	-0.41684608575455	0.0	1.900229658210356	-0.44738673629955344	0.0
135	4.526470588235294	1.9137385889473886	-0.5075674609734564	0.0	1.90810479452324	-0.5157134800408478	0.0	1.9090270942906318	-0.6297291148185032	0.0	1.9135591448665386	-0.7240221547459676	0.0	1.9017605345855053	-0.7611592131739535	0.0	1.8970467477535091	-0.7604818346508724	0.0	1.9146690507389499	-0.7365456845095041	0.0	1.9062083247052586	-0.5161069830635419	0.0	1.9077097651181623	-0.6271309618177012	0.0	1.907027426325346	-0.7231463274405476	0.0	1.90013554496453	-0.7628999481877023	0.0	1.8990678282846285	-0.7642819775360041	0.0	1.9071604925071985	-0.7479285571936302	0.0	1.929252802241908	-0.3395174822928662	0.0	1.9239710702023405	-0.27022220154217674	0.0	1.9176025019420992	-0.3254429410071963	0.0	1.909416156399111	-0.35163081468994395	0.0	1.8674905209316919	-0.41740148198585225	0.0	1.8937787013849232	-0.44618622165078614	0.0	1.9106540522995736	-0.3499787551912311	0.0	1.8731743495246047	-0.4156857919252595	0.0	1.9053788889251062	-0.44701198454330987	0.0
136	4.5600000000000005	1.914603194650076	-0.5072354654766769	0.0	1.9076539465964313	-0.5142747371995425	0.0	1.9078524124913137	-0.6289607202241139	0.0	1.914418263079318	-0.7267716114989803	0.0	1.9039530328520524	-0.7614020978699848	0.0	1.8987010336152053	-0.7612104304164524	0.0	1.9166185913009204	-0.7413830775017942	0.0	1.9080916754626747	-0.5151528770096478	0.0	1.9076674544365535	-0.6273217584719185	0.0	1.9103555978697941	-0.7243809980887176	0.0	1.9017574889817102	-0.7620167054769428	0.0	1.9024364285529471	-0.7641688042491316	0.0	1.9114575684365138	-0.7458641424945234	0.0	1.9293307139623588	-0.34001668161597226	0.0	1.923253336646556	-0.2703589045471111	0.0	1.9165693142498688	-0.3320438349733081	0.0	1.9093182908653348	-0.3511960448622341	0.0	1.8716056553820697	-0.4153349102590897	0.0	1.8987109322009414	-0.4454945994965803	0.0	1.9122254888549217	-0.3499339444735091	0.0	1.876238001858283	-0.4149323882369089	0.0	1.9077326928114458	-0.4467986195210391	0.0
137	4.593529411764706	1.9147917183726786	-0.5072299374275394	0.0	1.9073810751117322	-0.5137064256396653	0.0	1.9072271909420988	-0.6288105097863582	0.0	1.9140566108063584	-0.7285835474274429	0.0	1.9045743051213924	-0.7618024189250665	0.0	1.899022708156695	-0.7618629696995515	0.0	1.916711181334954	-0.7442990994118769	0.0	1.9086642564428513	-0.5148465882394878	0.0	1.9075595830793344	-0.6277108255750279	0.0	1.912408272130636	-0.7256148566317522	0.0	1.9027356395975483	-0.7617863252409947	0.0	1.9045502186316363	-0.7642734374435356	0.0	1.91391177766524	-0.7450209058892396	0.0	1.929106453491109	-0.34033883373192747	0.0	1.9228459141642584	-0.2704955658418697	0.0	1.9160417344717657	-0.3358404002248495	0.0	1.9093398650725448	-0.3511052709313505	0.0	1.8739770802981874	-0.4143020688819199	0.0	1.9009808860007826	-0.44526094776833874	0.0	1.91245063488067	-0.3500457830010166	0.0	1.8772243730700413	-0.4145502336575748	0.0	1.9082974340923196	-0.4467094455845263	0.0
138	4.627058823529412	1.9146502866960873	-0.5073606672467895	0.0	1.9072552990697071	-0.5136507719514978	0.0	1.9069974854255916	-0.6289560167012579	0.0	1.9132886039384773	-0.7295195747239873	0.0	1.9043793404237628	-0.7621597148951063	0.0	1.898707484038365	-0.7623080438808776	0.0	1.9160122364790493	-0.7456351720422439	0.0	1.9085412551368814	-0.5148903626508486	0.0	1.9074537541382348	-0.6280767605242893	0.0	1.9133805642565571	-0.7265154588726459	0.0	1.9031841055976844	-0.7618876091256438	0.0	1.9055756759039308	-0.7644397492583406	0.0	1.9149430511520653	-0.7449092965772969	0.0	1.9288179660622675	-0.34050097704096954	0.0	1.9226765197695308	-0.2705953358183292	0.0	1.915865222602346	-0.3374549407059075	0.0	1.9094049230194847	-0.3511809917778943	0.0	1.8749888386630509	-0.41397463543698637	0.0	1.9015393661726356	-0.44527939112910875	0.0	1.9120592808769703	-0.35019211019327784	0.0	1.8770870955539942	-0.41442444467100226	0.0	1.9079712683594519	-0.4466955989359286	0.0
